<svg xmlns="http://www.w3.org/2000/svg" width="96" height="128" viewBox="0 0 96 128">
  <rect width="96" height="128" fill="none"/>
  <g stroke="#23130b" stroke-width="2" stroke-linejoin="round" stroke-linecap="round">
    <ellipse cx="48" cy="18" rx="20" ry="8" fill="#4e2d1f"/>
    <rect x="34" y="20" width="28" height="12" rx="2" fill="#6d402d"/>
    <ellipse cx="48" cy="32" rx="18" ry="6" fill="#4e2d1f"/>

    <circle cx="48" cy="42" r="11" fill="#d7b18e"/>
    <circle cx="44" cy="40" r="1.5" fill="#23130b" stroke="none"/>
    <circle cx="52" cy="40" r="1.5" fill="#23130b" stroke="none"/>
    <path d="M44 46 Q48 49 52 46" fill="none"/>

    <path d="M31 56 L65 56 L70 86 L26 86 Z" fill="#3d5a45"/>
    <rect x="39" y="62" width="18" height="16" rx="2" fill="#284032"/>
    <path d="M26 68 L16 88 L23 91 L33 72 Z" fill="#3d5a45"/>
    <path d="M70 68 L79 84 L72 88 L63 72 Z" fill="#3d5a45"/>

    <path d="M40 86 L35 114 L45 114 L48 88 Z" fill="#4f3f2f"/>
    <path d="M56 86 L58 114 L68 114 L64 86 Z" fill="#4f3f2f"/>
    <rect x="31" y="113" width="16" height="6" rx="2" fill="#2a2018"/>
    <rect x="56" y="113" width="16" height="6" rx="2" fill="#2a2018"/>

    <rect x="11" y="50" width="4" height="66" fill="#6c4b31"/>
    <circle cx="13" cy="47" r="6" fill="#c9e6ff"/>
    <circle cx="13" cy="47" r="3" fill="#8dc8ff"/>
  </g>
</svg>
